<?xml version="1.0" encoding="UTF-8" standalone="no"?>
<!-- Created with Inkscape (http://www.inkscape.org/) -->

<svg
   xmlns:dc="http://purl.org/dc/elements/1.1/"
   xmlns:cc="http://creativecommons.org/ns#"
   xmlns:rdf="http://www.w3.org/1999/02/22-rdf-syntax-ns#"
   xmlns:svg="http://www.w3.org/2000/svg"
   xmlns="http://www.w3.org/2000/svg"
   version="1.1"
   width="400"
   height="100"
   id="svg4122">
  <defs
     id="defs4124" />
  <metadata
     id="metadata4127">
    <rdf:RDF>
      <cc:Work
         rdf:about="">
        <dc:format>image/svg+xml</dc:format>
        <dc:type
           rdf:resource="http://purl.org/dc/dcmitype/StillImage" />
        <dc:title></dc:title>
      </cc:Work>
    </rdf:RDF>
  </metadata>
  <g
     transform="translate(0,-952.36218)"
     id="layer1">
    <path
       d="m 18,1022.3622 20,-45.00006 10,0 20,45.00006"
       id="path4019"
       style="fill:none;stroke:#000000;stroke-width:2;stroke-linecap:square;stroke-linejoin:bevel;stroke-miterlimit:4;stroke-opacity:1;stroke-dasharray:none" />
    <path
       d="m 23,1022.3622 18,-40.00006 2,0"
       id="path4021"
       style="fill:none;stroke:#1ca4c7;stroke-width:2;stroke-linecap:square;stroke-linejoin:bevel;stroke-miterlimit:4;stroke-opacity:1;stroke-dasharray:none" />
    <path
       d="m 43,982.36214 2,0 17,40.00006"
       id="path4023"
       style="fill:none;stroke:#000000;stroke-width:2;stroke-linecap:square;stroke-linejoin:bevel;stroke-miterlimit:4;stroke-opacity:1;stroke-dasharray:none" />
    <path
       d="m 39,1001.3622 4,-10.00006 4,10.00006 z"
       id="path4029"
       style="fill:none;stroke:#000000;stroke-width:2;stroke-linecap:square;stroke-linejoin:bevel;stroke-miterlimit:4;stroke-opacity:1;stroke-dasharray:none" />
    <path
       d="m 31,1006.3622 24,0"
       id="path4031"
       style="fill:none;stroke:#000000;stroke-width:2;stroke-linecap:square;stroke-linejoin:bevel;stroke-miterlimit:4;stroke-opacity:1;stroke-dasharray:none" />
    <path
       d="m 30,1022.3622 4,-11 18,0 5,11"
       id="path4033"
       style="fill:none;stroke:#000000;stroke-width:2;stroke-linecap:square;stroke-linejoin:bevel;stroke-miterlimit:4;stroke-opacity:1;stroke-dasharray:none" />
    <path
       d="m 82,978.36214 19,44.00006 10,0 19,-43.00006"
       id="path4035"
       style="fill:none;stroke:#000000;stroke-width:2;stroke-linecap:square;stroke-linejoin:bevel;stroke-miterlimit:4;stroke-opacity:1;stroke-dasharray:none" />
    <path
       d="m 88,978.36214 17,39.00006 1,0"
       id="path4037"
       style="fill:none;stroke:#000000;stroke-width:2;stroke-linecap:square;stroke-linejoin:bevel;stroke-miterlimit:4;stroke-opacity:1;stroke-dasharray:none" />
    <path
       d="m 93,978.36214 13,30.00006 13,-30.00006"
       id="path4039"
       style="fill:none;stroke:#000000;stroke-width:2;stroke-linecap:square;stroke-linejoin:bevel;stroke-miterlimit:4;stroke-opacity:1;stroke-dasharray:none" />
    <path
       d="m 107,1017.3622 0.96162,-0.01 17,-39.00006"
       id="path4043"
       style="fill:none;stroke:#d22983;stroke-width:2;stroke-linecap:square;stroke-linejoin:bevel;stroke-miterlimit:4;stroke-opacity:1;stroke-dasharray:none" />
    <path
       d="m 187,1022.3622 -27,0 -5,-5 0,-34.00006 6,-6 26,0"
       id="path4045"
       style="fill:none;stroke:#000000;stroke-width:2;stroke-linecap:square;stroke-linejoin:bevel;stroke-miterlimit:4;stroke-opacity:1;stroke-dasharray:none" />
    <path
       d="m 187,1017.3622 -24,0 -3,-3 0,-14 20,0"
       id="path4047"
       style="fill:none;stroke:#2b9abc;stroke-width:2;stroke-linecap:square;stroke-linejoin:bevel;stroke-miterlimit:4;stroke-opacity:1;stroke-dasharray:none" />
    <path
       d="m 187,1012.3622 -22,0 0,-7 15,0"
       id="path4049"
       style="fill:none;stroke:#000000;stroke-width:2;stroke-linecap:square;stroke-linejoin:bevel;stroke-miterlimit:4;stroke-opacity:1;stroke-dasharray:none" />
    <path
       d="m 160,999.36216 0,-14.00002 3,-3 24,0"
       id="path4051"
       style="fill:none;stroke:#000000;stroke-width:2;stroke-linecap:square;stroke-linejoin:bevel;stroke-miterlimit:4;stroke-opacity:1;stroke-dasharray:none" />
    <path
       d="m 180,995.36213 -14,0 0,-7.99999 21,0"
       id="path4053"
       style="fill:none;stroke:#000000;stroke-width:2;stroke-linecap:square;stroke-linejoin:bevel;stroke-miterlimit:4;stroke-opacity:1;stroke-dasharray:none" />
    <path
       d="m 216,1022.3622 0,-44.00006 10,0 20,27.00006 0,-27.00006"
       id="path4055"
       style="fill:none;stroke:#000000;stroke-width:2;stroke-linecap:square;stroke-linejoin:bevel;stroke-miterlimit:4;stroke-opacity:1;stroke-dasharray:none" />
    <path
       d="m 221,1022.3622 0,-40.00006 2,0 25,35.00006"
       id="path4057"
       style="fill:none;stroke:#d22983;stroke-width:2;stroke-linecap:square;stroke-linejoin:bevel;stroke-miterlimit:4;stroke-opacity:1;stroke-dasharray:none" />
    <path
       d="m 248,1017.3622 3,0 0,-39.00006"
       id="path4059"
       style="fill:none;stroke:#000000;stroke-width:2;stroke-linecap:square;stroke-linejoin:bevel;stroke-miterlimit:4;stroke-opacity:1;stroke-dasharray:none" />
    <path
       d="m 225,1022.3622 0,-27.00007 20,27.00007 11,0 0,-44.00006"
       id="path4061"
       style="fill:none;stroke:#000000;stroke-width:2;stroke-linecap:square;stroke-linejoin:bevel;stroke-miterlimit:4;stroke-opacity:1;stroke-dasharray:none" />
    <path
       d="m 284,978.36214 0,39.00006 5,5 29,0 5,-5 0,-39.00006"
       id="path4063"
       style="fill:none;stroke:#000000;stroke-width:2;stroke-linecap:square;stroke-linejoin:bevel;stroke-miterlimit:4;stroke-opacity:1;stroke-dasharray:none" />
    <path
       d="m 289,978.36214 0,37.00006 3,3"
       id="path4065"
       style="fill:none;stroke:#2b9abc;stroke-width:2;stroke-linecap:square;stroke-linejoin:bevel;stroke-miterlimit:4;stroke-opacity:1;stroke-dasharray:none" />
    <path
       d="m 293,978.36214 0,34.00006 20,0 0,-34.00006"
       id="path4067"
       style="fill:none;stroke:#000000;stroke-width:2;stroke-linecap:square;stroke-linejoin:bevel;stroke-miterlimit:4;stroke-opacity:1;stroke-dasharray:none" />
    <path
       d="m 293,1018.3622 22,0 3,-3 0,-37.00006"
       id="path4069"
       style="fill:none;stroke:#000000;stroke-width:2;stroke-linecap:square;stroke-linejoin:bevel;stroke-miterlimit:4;stroke-opacity:1;stroke-dasharray:none" />
    <path
       d="m 381,1013.3622 -22,0 0,-8 10,0"
       id="path4071"
       style="fill:none;stroke:#000000;stroke-width:2;stroke-linecap:square;stroke-linejoin:bevel;stroke-miterlimit:4;stroke-opacity:1;stroke-dasharray:none" />
    <path
       d="m 381,1022.3622 -27,0 -5,-5 0,-34.00006 6,-6 26,0"
       id="path4073"
       style="fill:none;stroke:#000000;stroke-width:2;stroke-linecap:square;stroke-linejoin:bevel;stroke-miterlimit:4;stroke-opacity:1;stroke-dasharray:none" />
    <path
       d="m 381,1017.3622 -25,0 -2,-2 0,-15 19,0"
       id="path4075"
       style="fill:none;stroke:#000000;stroke-width:2;stroke-linecap:square;stroke-linejoin:bevel;stroke-miterlimit:4;stroke-opacity:1;stroke-dasharray:none" />
    <path
       d="m 354,998.36213 0,-12.99999 3,-3 23,0"
       id="path4077"
       style="fill:none;stroke:#d22983;stroke-width:2;stroke-linecap:square;stroke-linejoin:bevel;stroke-miterlimit:4;stroke-opacity:1;stroke-dasharray:none" />
    <path
       d="m 373,995.36213 -14,0 0,-7.99999 21,0"
       id="path4079"
       style="fill:none;stroke:#000000;stroke-width:2;stroke-linecap:square;stroke-linejoin:bevel;stroke-miterlimit:4;stroke-opacity:1;stroke-dasharray:none" />
  </g>
</svg>
